<svg data-v-0dd9719b="" version="1.0" xmlns="http://www.w3.org/2000/svg" xmlns:xlink="http://www.w3.org/1999/xlink" width="100%" height="100%" viewBox="0 0 340.000000 250.000000" preserveAspectRatio="xMidYMid meet" color-interpolation-filters="sRGB" style="margin: auto;"> <rect data-v-0dd9719b="" x="0" y="0" width="100%" height="100%" fill="#ffffff" fill-opacity="1" class="background"></rect> <rect data-v-0dd9719b="" x="0" y="0" width="100%" height="100%" fill="url(#watermark)" fill-opacity="1" class="watermarklayer"></rect> <g data-v-0dd9719b="" fill="#333333" class="icon-text-wrapper icon-svg-group iconsvg" transform="translate(54.69142150878906,98.32460021972656)"><g class="iconsvg-imagesvg" transform="translate(0,1.7427902221679688)"><g><rect fill="#333333" fill-opacity="0" stroke-width="2" x="0" y="0" width="95.12" height="48.456691068217374" class="image-rect"></rect> <g class="image-svg-svg"><g fill="url(#g6_FmQrTTBRHGDkakAMaP)" data-gra-ignore="true"><svg x="0" y="0" width="95.12" height="51.27182367494785" style="overflow: visible;"><svg xmlns="http://www.w3.org/2000/svg" xmlns:xlink="http://www.w3.org/1999/xlink" viewBox="0 0 92.304 47.016000000000005" style="overflow: visible;"><path transform="translate(-2.4480000000000004 46.440000000000005)" d="M43.49-17.50L40.61-3.89Q38.81-3.02 36.90-2.20Q34.99-1.37 32.83-0.76Q30.67-0.14 28.12 0.22Q25.56 0.58 22.54 0.58L22.54 0.58Q12.89 0.58 7.67-3.74Q2.45-8.06 2.45-18.14L2.45-18.14Q2.45-23.98 4.25-29.12Q6.05-34.27 9.58-38.12Q13.10-41.98 18.29-44.21Q23.47-46.44 30.17-46.44L30.17-46.44Q33.34-46.44 35.96-46.01Q38.59-45.58 40.72-44.89Q42.84-44.21 44.53-43.42Q46.22-42.62 47.59-41.90L47.59-41.90L45.00-28.51L32.04-28.51Q32.11-29.23 32.22-30.38Q32.33-31.54 32.40-32.72Q32.47-33.91 32.54-35.06Q32.62-36.22 32.62-37.01L32.62-37.01Q32.62-37.58 32.54-38.34Q32.47-39.10 32.18-39.82Q31.90-40.54 31.28-41.00Q30.67-41.47 29.66-41.47L29.66-41.47Q27.79-41.47 26.24-39.92Q24.70-38.38 23.47-35.82Q22.25-33.26 21.31-30.02Q20.38-26.78 19.76-23.44Q19.15-20.09 18.83-16.85Q18.50-13.61 18.50-11.16L18.50-11.16Q18.50-10.44 18.58-9.36Q18.65-8.28 19.01-7.27Q19.37-6.26 20.12-5.54Q20.88-4.82 22.18-4.82L22.18-4.82Q24.41-4.82 26.50-7.60Q28.58-10.37 30.17-17.50L30.17-17.50L43.49-17.50ZM75.60-46.44L75.60-46.44Q81.79-46.44 85.64-44.86Q89.50-43.27 91.73-39.96L91.73-39.96Q93.17-37.73 93.96-34.92Q94.75-32.11 94.75-28.44L94.75-28.44Q94.75-25.27 94.18-22.10Q93.60-18.94 92.56-16.02Q91.51-13.10 90.04-10.55Q88.56-7.99 86.76-6.05L86.76-6.05Q83.38-2.38 78.95-0.90Q74.52 0.58 68.04 0.58L68.04 0.58Q61.78 0.58 57.96-0.72Q54.14-2.02 51.91-4.90L51.91-4.90Q50.33-6.91 49.43-10.01Q48.53-13.10 48.53-17.78L48.53-17.78Q48.53-25.78 51.37-32.08Q54.22-38.38 59.47-42.05L59.47-42.05Q62.64-44.28 66.53-45.36Q70.42-46.44 75.60-46.44ZM67.46-4.46L67.46-4.46Q69.12-4.46 70.60-5.94Q72.07-7.42 73.33-9.90Q74.59-12.38 75.64-15.55Q76.68-18.72 77.40-22.10Q78.12-25.49 78.52-28.84Q78.91-32.18 78.91-34.92L78.91-34.92Q78.91-38.66 78.16-40.07Q77.40-41.47 75.96-41.47L75.96-41.47Q74.30-41.47 72.79-40.03Q71.28-38.59 69.95-36.18Q68.62-33.77 67.57-30.64Q66.53-27.50 65.77-24.19Q65.02-20.88 64.62-17.64Q64.22-14.40 64.22-11.66L64.22-11.66Q64.22-7.56 65.12-6.01Q66.02-4.46 67.46-4.46Z"></path></svg></svg></g><defs><pattern id="g6_FmQrTTBRHGDkakAMaP" x="0" y="62.5" width="125" height="125" viewBox="0 0 100 100" preserveAspectRatio="xMidYMid meet" patternTransform="matrix(1,0,0,1,0,0)" patternUnits="userSpaceOnUse"><g data-gra="path-name" fill="#0F7FE0"><svg width="100" height="100" viewBox="0 0 100 100" xmlns="http://www.w3.org/2000/svg">
  <g stroke="none" stroke-width="1" fill-rule="evenodd">
    <g transform="translate(-100.000000, -2309.000000)">
      <path d="M103.813992,2409.0003 L100.001856,2408.99835 L99.9993731,2405.18564 C101.220443,2406.50658 102.493059,2407.77922 103.813992,2409.0003 Z M109.244127,2409.00024 L104.869445,2408.99903 C103.164962,2407.45902 101.539316,2405.83331 99.9993749,2404.12877 L99.9994808,2399.75548 C102.762276,2403.13869 105.860948,2406.2374 109.244127,2409.00024 Z M115.148623,2409.00024 L110.380216,2409.00016 C106.536639,2405.94814 103.051635,2402.4631 99.9996523,2398.61949 L99.9992712,2393.85059 C104.119791,2399.74458 109.254715,2404.8796 115.148623,2409.00024 Z M121.823816,2408.9999 L116.407505,2408.99979 C109.939442,2404.6401 104.359075,2399.05962 99.9995269,2392.59142 L99.9997438,2387.17539 C105.151143,2396.28132 112.718004,2403.84832 121.823816,2408.9999 Z M130.033281,2408.99932 L123.299304,2408.99873 C113.426489,2403.7051 105.293787,2395.57217 100.000475,2385.69909 L100.000492,2378.96593 C105.471769,2392.61883 116.380512,2403.52777 130.033281,2408.99932 Z M144.749905,2408.99983 L132.040533,2409.00001 C117.170276,2403.64251 105.356853,2391.82867 99.9997581,2376.95839 L99.9991666,2364.23869 C102.447683,2387.78032 121.209841,2406.54595 144.749905,2408.99983 Z M199.999791,2364.2507 L200.00009,2376.95939 C194.642887,2391.82903 182.829868,2403.64236 167.960183,2408.99983 L155.250699,2408.99979 C178.786574,2406.54616 197.546157,2387.78657 199.999791,2364.2507 Z M199.999316,2378.96693 L199.999734,2385.69909 C194.706398,2395.57221 186.573644,2403.70518 176.700769,2408.99881 L169.966928,2408.99932 C183.619364,2403.52791 194.527908,2392.61936 199.999316,2378.96693 Z M199.999898,2387.17639 L200.000007,2392.59242 C195.640557,2399.06019 190.060433,2404.64033 183.592704,2408.99979 L178.176393,2408.9999 C187.281871,2403.84851 194.848511,2396.28187 199.999898,2387.17639 Z M200.000238,2393.85159 L199.999762,2398.62049 C196.948102,2402.46354 193.463538,2405.9481 189.620491,2408.99976 L184.851585,2409.00024 C190.74516,2404.87984 195.879837,2399.74516 200.000238,2393.85159 Z M199.999909,2399.75648 L199.99903,2404.13076 C198.459623,2405.83458 196.834582,2407.45962 195.130764,2408.99903 L190.756481,2408.99991 C194.139171,2406.23743 197.23743,2403.13917 199.999909,2399.75648 Z M199.999909,2405.18664 L199.998352,2408.99835 L196.186639,2408.99991 C197.507087,2407.77925 198.779252,2406.50709 199.999909,2405.18664 Z M150.000104,2309.44131 C177.326609,2309.44131 199.558898,2331.6736 199.558898,2359.0001 C199.558898,2386.32661 177.326609,2408.5589 150.000104,2408.5589 C122.673599,2408.5589 100.44131,2386.32661 100.44131,2359.0001 C100.44131,2331.6736 122.673599,2309.44131 150.000104,2309.44131 Z M150.000104,2312.29361 C124.245932,2312.29361 103.293615,2333.24593 103.293615,2359.0001 C103.293615,2384.75428 124.245932,2405.70659 150.000104,2405.70659 C175.754276,2405.70659 196.706594,2384.75428 196.706594,2359.0001 C196.706594,2333.24593 175.754276,2312.29361 150.000104,2312.29361 Z M150.000104,2313.00669 C175.360658,2313.00669 195.993518,2333.63955 195.993518,2359.0001 C195.993518,2384.36066 175.360658,2404.99352 150.000104,2404.99352 C124.63955,2404.99352 104.006691,2384.36066 104.006691,2359.0001 C104.006691,2333.63955 124.63955,2313.00669 150.000104,2313.00669 Z M150.000104,2315.859 C126.211883,2315.859 106.858996,2335.2126 106.858996,2359.0001 C106.858996,2382.78761 126.211883,2402.14121 150.000104,2402.14121 C173.788325,2402.14121 193.141213,2382.78761 193.141213,2359.0001 C193.141213,2335.2126 173.788325,2315.859 150.000104,2315.859 Z M150.000104,2316.57207 C173.39542,2316.57207 192.428137,2335.60479 192.428137,2359.0001 C192.428137,2382.39542 173.39542,2401.42814 150.000104,2401.42814 C126.604788,2401.42814 107.572072,2382.39542 107.572072,2359.0001 C107.572072,2335.60479 126.604788,2316.57207 150.000104,2316.57207 Z M150.000104,2319.42438 C128.177834,2319.42438 110.424377,2337.17783 110.424377,2359.0001 C110.424377,2380.82237 128.177834,2398.57583 150.000104,2398.57583 C171.822374,2398.57583 189.575832,2380.82237 189.575832,2359.0001 C189.575832,2337.17783 171.822374,2319.42438 150.000104,2319.42438 Z M150.000104,2320.13745 C171.428756,2320.13745 188.862756,2337.57074 188.862756,2359.0001 C188.862756,2380.42947 171.428756,2397.86276 150.000104,2397.86276 C128.571452,2397.86276 111.137453,2380.42947 111.137453,2359.0001 C111.137453,2337.57074 128.571452,2320.13745 150.000104,2320.13745 Z M150.000104,2322.98976 C130.143785,2322.98976 113.989757,2339.14379 113.989757,2359.0001 C113.989757,2378.85642 130.143785,2395.01045 150.000104,2395.01045 C169.856423,2395.01045 186.010451,2378.85642 186.010451,2359.0001 C186.010451,2339.14379 169.856423,2322.98976 150.000104,2322.98976 Z M150.000104,2323.70283 C169.462805,2323.70283 185.297375,2339.5374 185.297375,2359.0001 C185.297375,2378.46281 169.462805,2394.29737 150.000104,2394.29737 C130.537403,2394.29737 114.702834,2378.46281 114.702834,2359.0001 C114.702834,2339.5374 130.537403,2323.70283 150.000104,2323.70283 Z M150.000104,2326.55514 C132.109736,2326.55514 117.555138,2341.10974 117.555138,2359.0001 C117.555138,2376.89047 132.109736,2391.44507 150.000104,2391.44507 C167.890472,2391.44507 182.44507,2376.89047 182.44507,2359.0001 C182.44507,2341.10974 167.890472,2326.55514 150.000104,2326.55514 Z M150.000104,2327.26821 C167.497567,2327.26821 181.731994,2341.50335 181.731994,2359.0001 C181.731994,2376.49685 167.497567,2390.73199 150.000104,2390.73199 C132.502641,2390.73199 118.268215,2376.49685 118.268215,2359.0001 C118.268215,2341.50335 132.502641,2327.26821 150.000104,2327.26821 Z M150.000104,2330.12052 C134.075687,2330.12052 121.120519,2343.07569 121.120519,2359.0001 C121.120519,2374.92452 134.075687,2387.87969 150.000104,2387.87969 C165.924521,2387.87969 178.879689,2374.92452 178.879689,2359.0001 C178.879689,2343.07569 165.924521,2330.12052 150.000104,2330.12052 Z M150.000104,2330.8336 C165.530903,2330.8336 178.166613,2343.46931 178.166613,2359.0001 C178.166613,2374.5309 165.530903,2387.16661 150.000104,2387.16661 C134.469305,2387.16661 121.833595,2374.5309 121.833595,2359.0001 C121.833595,2343.46931 134.469305,2330.8336 150.000104,2330.8336 Z M150.000104,2333.6859 C136.041638,2333.6859 124.6859,2345.04164 124.6859,2359.0001 C124.6859,2372.95857 136.041638,2384.31431 150.000104,2384.31431 C163.95857,2384.31431 175.314308,2372.95857 175.314308,2359.0001 C175.314308,2345.04164 163.95857,2333.6859 150.000104,2333.6859 Z M150.000104,2334.39898 C163.564952,2334.39898 174.601232,2345.43526 174.601232,2359.0001 C174.601232,2372.56495 163.564952,2383.60123 150.000104,2383.60123 C136.435256,2383.60123 125.398976,2372.56495 125.398976,2359.0001 C125.398976,2345.43526 136.435256,2334.39898 150.000104,2334.39898 Z M150.000104,2337.25128 C138.007589,2337.25128 128.251281,2347.0083 128.251281,2359.0001 C128.251281,2370.99191 138.007589,2380.74893 150.000104,2380.74893 C161.992619,2380.74893 171.748928,2370.99191 171.748928,2359.0001 C171.748928,2347.0083 161.992619,2337.25128 150.000104,2337.25128 Z M150.000104,2337.96436 C161.599714,2337.96436 171.035851,2347.40049 171.035851,2359.0001 C171.035851,2370.59971 161.599714,2380.03585 150.000104,2380.03585 C138.400494,2380.03585 128.964357,2370.59971 128.964357,2359.0001 C128.964357,2347.40049 138.400494,2337.96436 150.000104,2337.96436 Z M150.000104,2340.81666 C139.97354,2340.81666 131.816662,2348.97354 131.816662,2359.0001 C131.816662,2369.02667 139.97354,2377.18355 150.000104,2377.18355 C160.026668,2377.18355 168.183547,2369.02667 168.183547,2359.0001 C168.183547,2348.97354 160.026668,2340.81666 150.000104,2340.81666 Z M150.000104,2341.52974 C159.63305,2341.52974 167.470471,2349.36645 167.470471,2359.0001 C167.470471,2368.63376 159.63305,2376.47047 150.000104,2376.47047 C140.367158,2376.47047 132.529738,2368.63376 132.529738,2359.0001 C132.529738,2349.36645 140.367158,2341.52974 150.000104,2341.52974 Z M150.000104,2344.38204 C141.939491,2344.38204 135.382043,2350.93949 135.382043,2359.0001 C135.382043,2367.06072 141.939491,2373.61817 150.000104,2373.61817 C158.060717,2373.61817 164.618166,2367.06072 164.618166,2359.0001 C164.618166,2350.93949 158.060717,2344.38204 150.000104,2344.38204 Z M150.000104,2345.09512 C157.667099,2345.09512 163.90509,2351.33311 163.90509,2359.0001 C163.90509,2366.6671 157.667099,2372.90509 150.000104,2372.90509 C142.333109,2372.90509 136.095119,2366.6671 136.095119,2359.0001 C136.095119,2351.33311 142.333109,2345.09512 150.000104,2345.09512 Z M150.000104,2347.94742 C143.905442,2347.94742 138.947424,2352.90544 138.947424,2359.0001 C138.947424,2365.09477 143.905442,2370.05278 150.000104,2370.05278 C156.094766,2370.05278 161.052785,2365.09477 161.052785,2359.0001 C161.052785,2352.90544 156.094766,2347.94742 150.000104,2347.94742 Z M150.000104,2348.6605 C155.701148,2348.6605 160.339709,2353.29906 160.339709,2359.0001 C160.339709,2364.70115 155.701148,2369.33971 150.000104,2369.33971 C144.29906,2369.33971 139.6605,2364.70115 139.6605,2359.0001 C139.6605,2353.29906 144.29906,2348.6605 150.000104,2348.6605 Z M150.000104,2351.5128 C145.871393,2351.5128 142.512804,2354.87139 142.512804,2359.0001 C142.512804,2363.12882 145.871393,2366.4874 150.000104,2366.4874 C154.128815,2366.4874 157.487404,2363.12882 157.487404,2359.0001 C157.487404,2354.87139 154.128815,2351.5128 150.000104,2351.5128 Z M150.000104,2352.22588 C153.735197,2352.22588 156.774328,2355.26501 156.774328,2359.0001 C156.774328,2362.7352 153.735197,2365.77433 150.000104,2365.77433 C146.265011,2365.77433 143.225881,2362.7352 143.225881,2359.0001 C143.225881,2355.26501 146.265011,2352.22588 150.000104,2352.22588 Z M150.000104,2355.07819 C147.837344,2355.07819 146.078185,2356.83806 146.078185,2359.0001 C146.078185,2361.16215 147.837344,2362.92202 150.000104,2362.92202 C152.162864,2362.92202 153.922023,2361.16215 153.922023,2359.0001 C153.922023,2356.83806 152.162864,2355.07819 150.000104,2355.07819 Z M150.000104,2355.79126 C151.769246,2355.79126 153.208947,2357.23096 153.208947,2359.0001 C153.208947,2360.76925 151.769246,2362.20895 150.000104,2362.20895 C148.230962,2362.20895 146.791261,2360.76925 146.791261,2359.0001 C146.791261,2357.23096 148.230962,2355.79126 150.000104,2355.79126 Z M99.999231,2353.7609 L99.9997581,2341.04182 C105.356973,2326.1712 117.170806,2314.35717 132.041533,2308.99984 L144.7609,2308.99923 C121.21589,2311.44839 102.448394,2330.21589 99.999231,2353.7609 Z M200.00009,2341.04082 L199.999728,2353.74891 C197.545419,2330.20931 178.779991,2311.44765 155.238689,2308.99917 L167.958181,2308.99966 C182.828808,2314.35679 194.642647,2326.17051 200.00009,2341.04082 Z M100.000092,2339.03528 L100.000475,2332.30112 C105.294143,2322.42738 113.427583,2314.29401 123.301295,2309.00041 L130.035276,2309.00009 C116.381242,2314.4715 105.471504,2325.38124 100.000092,2339.03528 Z M199.999734,2332.30112 L199.999316,2339.03328 C194.527642,2325.38018 183.618301,2314.47124 169.964932,2309.00009 L176.698775,2309.00033 C186.572549,2314.29394 194.706041,2322.42733 199.999734,2332.30112 Z M99.9997438,2330.82482 L99.9995269,2325.40879 C104.3593,2318.94026 109.940017,2313.35953 116.408505,2308.99974 L121.824817,2308.99974 C112.718559,2314.15133 105.151331,2321.71856 99.9997438,2330.82482 Z M199.999331,2325.40679 L199.999898,2330.82382 C194.848323,2321.718 187.281316,2314.15114 178.175392,2308.99974 L183.591703,2308.99974 C190.059524,2313.35908 195.639756,2318.93911 199.999331,2325.40679 Z M99.9992712,2324.14962 L100.00005,2319.38022 C103.051938,2315.53681 106.536806,2312.05194 110.380216,2309.00005 L115.149623,2308.99927 C109.255296,2313.12002 104.120024,2318.2553 99.9992712,2324.14962 Z M200.000158,2319.38022 L200.000238,2324.14862 C195.879604,2318.25472 190.744579,2313.11979 184.850586,2308.99927 L189.619491,2308.99965 C193.4631,2312.05163 196.948138,2315.53664 200.000158,2319.38022 Z M99.9999731,2318.24413 L99.9993749,2313.87144 C101.539917,2312.16623 103.166231,2310.53992 104.871441,2308.99937 L109.244127,2308.99997 C105.861149,2311.76264 102.762644,2314.86115 99.9999731,2318.24413 Z M199.99903,2313.86944 L200.000235,2318.24413 C197.237401,2314.86095 194.138692,2311.76228 190.755478,2308.99948 L195.128768,2308.99937 C196.833312,2310.53932 198.459022,2312.16496 199.99903,2313.86944 Z M99.9989836,2312.81499 L100.001856,2309.00186 L103.814992,2308.99898 C102.493561,2310.22048 101.22048,2311.49356 99.9989836,2312.81499 Z M199.998352,2309.00186 L200.0003,2312.81399 C198.779215,2311.49306 197.506585,2310.22044 196.185637,2308.99937 L199.998352,2309.00186 Z"></path>
    </g>
  </g>
</svg></g></pattern></defs></g> <defs><filter id="colors2109663098"><feColorMatrix type="matrix" values="0 0 0 0 0.05859375  0 0 0 0 0.49609375  0 0 0 0 0.875  0 0 0 1 0" class="icon-fecolormatrix"></feColorMatrix></filter> <filter id="colorsf8266180634"><feColorMatrix type="matrix" values="0 0 0 0 0.99609375  0 0 0 0 0.99609375  0 0 0 0 0.99609375  0 0 0 1 0" class="icon-fecolormatrix"></feColorMatrix></filter> <filter id="colorsb4103102146"><feColorMatrix type="matrix" values="0 0 0 0 0  0 0 0 0 0  0 0 0 0 0  0 0 0 1 0" class="icon-fecolormatrix"></feColorMatrix></filter></defs></g></g> <g transform="translate(103.12000274658203,0)"><g data-gra="path-name" fill-rule="" class="tp-name iconsvg-namesvg"><g transform="scale(0.92)"><g><path d="M22.950811402380435-5.61L22.950811402380435-5.61Q23.250811402380435-5.61 23.479814123134215-5.37L23.479814123134215-5.37 24.78158203476325-3.79Q22.94272891415822-1.86 20.46824115755022-0.78 17.99375340094222 0.3 14.633753400942222 0.3L14.633753400942222 0.3Q11.693753400942223 0.3 9.392116951103405-0.71 7.091355387899849-1.73 5.56145964215229-3.56 4.04156389640473-5.39 3.335534875031096-7.95 2.629505853657461-10.51 2.8980960506820477-13.58L2.8980960506820477-13.58Q3.167561134341894-16.66 4.38153211296826-19.22 5.605503091594625-21.78 7.5664822324823255-23.62 9.527461373370025-25.46 12.135824923531208-26.47 14.73506336032765-27.49 17.77506336032765-27.49L17.77506336032765-27.49Q20.76506336032765-27.49 22.853698903248542-26.56 24.952334446169434-25.63 26.492352584527953-24.03L26.492352584527953-24.03 25.1553716298044-22.35Q25.008748783734475-22.16 24.827375257476106-22.03 24.646876617852996-21.91 24.316876617852994-21.91L24.316876617852994-21.91Q24.076876617852996-21.91 23.81262457728766-22.09 23.558372536722327-22.27 23.20199447587433-22.54 22.84474152839107-22.8 22.360988127448845-23.1 21.868109613141883-23.41 21.19085666565862-23.67 20.514478604810623-23.94 19.600226564245286-24.12 18.685974523679953-24.3 17.47597452367995-24.3L17.47597452367995-24.3Q15.285974523679954-24.3 13.41035802603551-23.55 11.534741528391066-22.8 10.104007172725293-21.42 8.672397930424259-20.03 7.768295490007669-18.04 6.86419304959108-16.05 6.648096050682048-13.58L6.648096050682048-13.58Q6.4258748453262005-11.04 6.981772404909613-9.05 7.537669964493023-7.06 8.686935608827248-5.68 9.827076139796732-4.31 11.484084302058067-3.59 13.150217577684144-2.86 15.140217577684144-2.86L15.140217577684144-2.86Q16.350217577684145-2.86 17.333340877213033-3.01 18.31558929010666-3.15 19.171835889164438-3.45 20.018957374857475-3.76 20.7692021600794-4.22 21.520321831936585-4.69 22.296314576593172-5.33L22.296314576593172-5.33Q22.650811402380434-5.61 22.950811402380435-5.61ZM55.72809605068205-13.58L55.72809605068205-13.58Q55.46125562692798-10.53 54.26815953493687-7.98 53.07506344294577-5.43 51.154084302058074-3.59 49.223105161170366-1.75 46.663866724373925-0.73 44.09550317421274 0.28 41.10550317421274 0.28L41.10550317421274 0.28Q38.10550317421274 0.28 35.72386672437392-0.73 33.35310516117037-1.75 31.744084302058067-3.59 30.14506344294577-5.43 29.398159534936873-7.98 28.65125562692798-10.53 28.91809605068205-13.58L28.91809605068205-13.58Q29.185811361071377-16.64 30.37890745306248-19.19 31.57200354505359-21.74 33.493857572576545-23.59 35.42571160009951-25.44 37.97495003689595-26.46 40.535063360327655-27.49 43.535063360327655-27.49L43.535063360327655-27.49Q46.52506336032765-27.49 48.91495003689595-26.46 51.29571160009951-25.44 52.90385757257655-23.59 54.50200354505359-21.74 55.24890745306248-19.19 55.995811361071375-16.64 55.72809605068205-13.58ZM51.94809605068205-13.58L51.94809605068205-13.58Q52.16769259613211-16.09 51.6617950365487-18.08 51.15589747696529-20.07 50.01575694599581-21.44 48.886491301661586-22.82 47.17123291267077-23.56 45.45597452367995-24.3 43.25597452367995-24.3L43.25597452367995-24.3Q41.06597452367995-24.3 39.221232912670764-23.56 37.37649130166159-22.82 35.99575694599581-21.44 34.605897476965296-20.07 33.75179503654871-18.08 32.89769259613212-16.09 32.67809605068204-13.58L32.67809605068204-13.58Q32.459374391867236-11.08 32.96614683808591-9.1 33.47204439766932-7.11 34.6221849286388-5.74 35.76145057297303-4.36 37.4775838485991-3.63 39.19371712422518-2.9 41.383717124225186-2.9L41.383717124225186-2.9Q43.58371712422518-2.9 45.427583848599106-3.63 47.27145057297303-4.36 48.642184928638805-5.74 50.02204439766932-7.11 50.87614683808591-9.1 51.72937439186724-11.08 51.94809605068205-13.58ZM73.80001356245982-9.83L73.80001356245982-9.83Q74.01976877723791-9.37 74.17602444547495-8.87 74.33228011371197-8.37 74.47678600867852-7.85L74.47678600867852-7.85Q74.71315500034724-8.38 74.96602444547494-8.87 75.2180190039674-9.35 75.52176333573034-9.85L75.52176333573034-9.85 86.18369890324854-26.56Q86.4713190285647-26.99 86.75006789491728-27.09 87.01794187463462-27.18 87.50794187463461-27.18L87.50794187463461-27.18 90.22794187463461-27.18 87.85 0 84.62 0 86.3671486106127-19.97Q86.40214407602308-20.37 86.462388861245-20.83 86.52175875983166-21.28 86.60375331832411-21.76L86.60375331832411-21.76 75.7964460383834-4.76Q75.25208067438636-3.91 74.40208067438637-3.91L74.40208067438637-3.91 73.87208067438637-3.91Q73.01208067438637-3.91 72.6164460383834-4.76L72.6164460383834-4.76 64.5781277515004-21.81Q64.5952583063727-21.32 64.58413863451551-20.85 64.57214407602306-20.37 64.5371486106127-19.97L64.5371486106127-19.97 62.79 0 59.56 0 61.93794187463462-27.18 64.65794187463462-27.18Q65.14794187463461-27.18 65.41006789491728-27.09 65.66131902856469-26.99 65.87369890324854-26.56L65.87369890324854-26.56 73.80001356245982-9.83ZM103.75975970805865-10.17L99.39975970805865-10.17 98.51 0 94.85 0 97.22794187463461-27.18 105.24794187463462-27.18Q107.82794187463462-27.18 109.68632356315432-26.59 111.53383036503877-25.99 112.69759283516025-24.89 113.85135530528173-23.79 114.32487299018129-22.23 114.8092655617161-20.68 114.64128732774634-18.76L114.64128732774634-18.76Q114.47505886704708-16.86 113.67770166531137-15.29 112.86946957694042-13.71 111.49060738715612-12.58 110.11087031073657-11.44 108.15487756607997-10.8 106.20975970805864-10.17 103.75975970805865-10.17L103.75975970805865-10.17ZM100.63422475040944-24.28L99.65522660555435-13.09 104.01522660555435-13.09Q105.59522660555434-13.09 106.83197184423524-13.51 108.06784219628085-13.92 108.95345869392531-14.67 109.83907519156975-15.42 110.34093828827197-16.47 110.85192649833893-17.51 110.96128732774633-18.76L110.96128732774633-18.76Q111.18875785291372-21.36 109.71649130166159-22.82 108.23422475040944-24.28 104.99422475040944-24.28L104.99422475040944-24.28 100.63422475040944-24.28ZM128.4654668974957-2.92L128.4654668974957-2.92Q130.1554668974957-2.92 131.53533543570546-3.49 132.91520397391525-4.06 133.9244424107117-5.08 134.9345557341434-6.11 135.5387896363502-7.53 136.15302353855702-8.95 136.30262915318636-10.66L136.30262915318636-10.66 137.74794187463462-27.18 141.40794187463462-27.18 139.96262915318636-10.66Q139.75703079390044-8.31 138.83117858021333-6.3 137.90532636652623-4.29 136.3767180311431-2.82 134.85810969576-1.35 132.77461921839821-0.51 130.6920036276717 0.32 128.18200362767172 0.32L128.18200362767172 0.32Q125.6820036276717 0.32 123.74461921839823-0.51 121.80810969576-1.35 120.5267180311431-2.82 119.2553263665262-4.29 118.68117858021331-6.3 118.10703079390042-8.31 118.31262915318635-10.66L118.31262915318635-10.66 119.75794187463461-27.18 123.41794187463462-27.18 121.97437892645688-10.68Q121.82477331182754-8.97 122.19053940962073-7.55 122.54630550741392-6.13 123.37619218398221-5.1 124.20695374718576-4.08 125.49621032234073-3.5 126.7854668974957-2.92 128.4654668974957-2.92Z" transform="translate(-2.8240766525268555, 27.489999771118164)"></path></g> <!----> <!----> <!----> <!----> <!----> <!----> <g data-gra="path-name-1" fill="#333333" transform="translate(0,30.810001373291016)"><g transform="scale(1)"><path d="M11.23 0L2.5279418746346143-27.18 5.467941874634614-27.18Q5.967941874634614-27.18 6.246944595388393-26.94 6.5250724295069125-26.69 6.64182673736706-26.31L6.64182673736706-26.31 12.653794170939838-7.13Q12.857801426283245-6.49 13.011310042003544-5.73 13.164818657723842-4.97 13.303077953632584-4.15L13.303077953632584-4.15Q13.544818657723841-4.97 13.811310042003544-5.73 14.077801426283246-6.49 14.393794170939838-7.13L14.393794170939838-7.13 23.721826737367063-26.31Q23.87982310969536-26.63 24.224319935482615-26.91 24.567941874634617-27.18 25.047941874634617-27.18L25.047941874634617-27.18 28.007941874634614-27.18 14.55 0 11.23 0ZM31.477941874634617-27.18L48.22794187463462-27.18 47.9663507706921-24.19 34.9163507706921-24.19 34.12632813905301-15.16 44.68632813905301-15.16 44.43348590146309-12.27 33.873485901463084-12.27 33.06246599057777-3 46.112465990577775-3 45.85 0 29.1 0 31.477941874634617-27.18ZM57.197941874634616-27.18L55.090339970295105-3.09 66.85033997029511-3.09 66.58 0 51.14 0 53.517941874634616-27.18 57.197941874634616-27.18ZM76.69794187463461-27.18L74.5903399702951-3.09 86.35033997029511-3.09 86.08 0 70.64 0 73.01794187463462-27.18 76.69794187463461-27.18ZM96.88794187463462-27.18L94.51 0 90.83 0 93.20794187463461-27.18 96.88794187463462-27.18Z" transform="translate(-2.5279417037963867, 27.18000030517578)"></path></g></g></g></g> <!----></g></g></svg>